<svg width="32" height="32" viewBox="0 0 32 32" fill="none" xmlns="http://www.w3.org/2000/svg">
<circle cx="16" cy="16" r="15" stroke="#FF0000" stroke-width="2"/>
<path d="M19.5786 21.9893C20.6624 19.349 18.5578 17.5183 17.3564 16.927C17.3528 16.9253 17.3497 16.923 17.3468 16.9202C17.3233 16.8967 17.3411 16.8565 17.3743 16.858C17.8595 16.881 18.7744 16.9065 19.2 16.8533C19.6118 16.8019 21.1028 18.0663 21.9974 18.8869C22.1646 19.0403 22.2578 19.2575 22.2578 19.4844V19.6978C22.2578 20.0945 20.5167 21.4183 19.6365 22.0376C19.6299 22.0422 19.6224 22.0444 19.6144 22.0444C19.5865 22.0444 19.568 22.0151 19.5786 21.9893Z" fill="#FF0000"/>
<path d="M19.9708 16.1892L17.6277 15.9289C17.4855 15.9131 17.9122 15.7156 18.41 15.5733C18.9077 15.4311 20.1877 15.5022 20.6144 15.5733C20.9414 15.6278 22.6436 16.4265 23.557 16.8686C23.6339 16.9058 23.705 16.9526 23.7698 17.0082L28.5565 21.111C28.6186 21.1642 28.722 21.1896 28.7418 21.269C28.7504 21.3035 28.6992 21.3333 28.5077 21.3333C28.0811 21.3333 26.4455 21.6178 26.0188 21.3333C25.6775 21.1058 26.5877 22.4948 27.0144 23.1822C24.0004 19.4315 21.449 17.0686 20.3704 16.3312C20.2517 16.2501 20.1137 16.2051 19.9708 16.1892Z" fill="#FF0000"/>
<path d="M27.7068 6.47288L28.7267 7.89195C29.041 8.32917 28.9526 8.9367 28.5269 9.26631L27.3267 10.1955C27.1695 10.3172 26.9795 10.3893 26.7811 10.4025L23.8855 10.5956L24.4559 10.1677C25.7662 9.18503 26.8439 7.92568 27.6123 6.47926C27.6317 6.44276 27.6826 6.43932 27.7068 6.47288Z" fill="#FF0000"/>
<path d="M30.406 13.7821C29.1458 14.096 26.5335 14.8622 26.4455 14.8622L28.5574 16.0885C28.6189 16.1242 28.6841 16.1533 28.7517 16.1752L31.0677 16.9244V14.3306C31.0677 13.9216 30.8029 13.6833 30.406 13.7821Z" fill="#FF0000"/>
<path d="M31.3978 17.722L30.7989 19.7488C30.6507 20.2504 30.0565 20.4618 29.6248 20.1664L29.1477 19.84L27.8677 18.8444L28.3633 18.7949C29.4371 18.6875 30.4654 18.3061 31.3495 17.6872C31.3739 17.6701 31.4062 17.6934 31.3978 17.722Z" fill="#FF0000"/>
<path d="M27.9084 23.5664L27.4489 22.4C28.1554 22.5884 28.8876 22.6626 29.6176 22.6196L29.6554 22.6174C29.6842 22.6157 29.7029 22.6474 29.6874 22.6718L29.0521 23.675C28.77 24.1203 28.1016 24.0569 27.9084 23.5664Z" fill="#FF0000"/>
<path d="M25.8844 27.4489L25.6 23.8933L28.3733 25.1022L25.8844 27.4489Z" fill="#FF0000"/>
<path d="M3.84 17.8489V21.3764C3.84 21.5744 4.05773 21.695 4.22558 21.5901C4.33104 21.5242 4.46882 21.5451 4.55003 21.6393L5.63261 22.8951C5.98901 23.3085 6.48725 23.5736 7.02927 23.6381L9.12554 23.8876C9.13964 23.8893 9.14726 23.8716 9.13635 23.8625L8.358 23.2139C7.81061 22.7577 7.56379 22.0341 7.71836 21.3385C7.73939 21.2438 7.79575 21.1607 7.87594 21.1062L8.00435 21.0189C8.96859 20.3632 10.1775 20.1783 11.2936 20.5157L12.5787 20.9042C12.5814 20.9051 12.5838 20.902 12.5822 20.8996C12.2652 20.3924 12.6098 19.7312 13.2072 19.7006L14.6408 19.6271C14.6449 19.6269 14.6478 19.6228 14.6467 19.6188C14.4297 18.8376 14.6607 17.9977 15.2485 17.4392L15.7136 16.9974C15.7147 16.9964 15.7148 16.9946 15.7139 16.9934C15.4737 16.673 15.5191 16.2221 15.8183 15.956L16.2564 15.5667C16.4603 15.3854 16.7125 15.2673 16.9824 15.2269L18.772 14.9584C20.122 14.7559 21.5017 14.9259 22.7622 15.4501L26.5784 17.037C27.5113 17.425 28.5469 17.4912 29.5217 17.2254C29.5393 17.2206 29.5397 17.1958 29.5223 17.1904L28.6366 16.9179C28.037 16.7334 27.4639 16.4716 26.9319 16.1391L26.2889 15.7373C26.115 15.6286 25.958 15.4949 25.823 15.3406L24.6615 14.0131C24.5894 13.9307 24.5935 13.8065 24.671 13.729C24.7185 13.6815 24.786 13.6599 24.8523 13.6709L25.9955 13.8615C26.0051 13.8631 26.0109 13.8514 26.004 13.8447L25.1963 13.0615C24.19 12.0856 23.0576 11.2488 21.8293 10.5732L20.8617 10.0411C20.8443 10.0315 20.8262 10.0232 20.8076 10.0162C20.5421 9.91661 20.4529 9.58568 20.6325 9.36622L20.8115 9.14744C20.874 9.071 20.954 9.01071 21.0447 8.97162L25.0311 7.25333L24.7612 7.27552C21.5095 7.54278 18.3373 8.42015 15.4104 9.86175L15.2204 9.95533C15.1795 9.97544 15.1381 9.92907 15.1627 9.89074L15.3945 9.52906C16.3489 8.04029 16.8779 6.31889 16.9244 4.55111L16.3043 5.29953C15.3473 6.45461 14.2394 7.47596 13.0105 8.33619C12.3496 8.79886 11.7229 9.30867 11.1353 9.86163L5.98028 14.7135C5.97684 14.7167 5.97755 14.7223 5.98168 14.7246L6.39444 14.9539C6.53459 15.0318 6.63807 15.1622 6.68212 15.3163C6.72889 15.48 6.70447 15.6558 6.61486 15.8006L5.07631 18.2859C4.97325 18.4524 4.78142 18.5421 4.58759 18.5144C4.4722 18.4979 4.36639 18.4411 4.28895 18.354L3.84 17.8489Z" fill="#FF0000"/>
<path d="M18.411 30.8341L18.3256 30.8457C18.2861 30.8511 18.2622 30.8034 18.2901 30.775L18.6321 30.4268C20.8146 28.2047 21.7718 25.0554 21.1951 21.9946C21.1926 21.9814 21.1973 21.9679 21.2074 21.959L22.8907 20.4777C22.9298 20.4433 22.9911 20.4559 23.0133 20.5031C24.1567 22.9271 24.7906 25.5599 24.8756 28.2387L24.8872 28.6031C24.8882 28.6364 24.8698 28.6673 24.84 28.6822L23.9714 29.1165C22.2246 29.9899 20.3461 30.5702 18.411 30.8341Z" fill="#FF0000"/>
<path d="M11.4489 14.1511C11.1644 15.4311 8.95999 15.9289 8.95999 15.9289C9.29988 15.2916 9.2844 15.0858 9.52018 14.9476C10.1217 14.595 10.835 14.4817 11.4489 14.1511Z" fill="#13151A"/>
<path d="M29.7268 10.0663L29.9267 9.90881C30.0161 9.83838 30.1484 9.88232 30.1779 9.99225L30.8633 12.5471C30.8832 12.6213 30.8468 12.6991 30.777 12.7313L30.3713 12.9185C30.1068 13.0406 29.8295 13.1327 29.5446 13.1932C28.3376 13.4492 27.0807 13.1202 26.154 12.3058L25.4204 11.6612C25.3723 11.6243 25.3254 11.5832 25.28 11.5378L25.4204 11.6612C26.5772 12.5479 28.4912 11.0399 29.7098 10.0797L29.7268 10.0663Z" fill="#FF0000"/>
</svg>
