<svg width="100" height="100" viewBox="0 0 100 100" fill="none" xmlns="http://www.w3.org/2000/svg">
<path d="M33.2577 53.118C34.3264 53.0915 33.1677 52.9794 32.6286 53.0841C28.5132 53.8847 24.191 53.7085 20.1196 52.7862C15.1423 51.6582 10.0381 49.6455 5.77301 46.8106C4.22751 45.7831 3.15872 44.5455 1.83968 43.3085M2.02645 44.2624C2.02645 43.7556 1.84126 43.4455 1.6455 44.1196C1.55343 44.437 1.61005 44.8286 1.61005 45.1545C1.61005 46.8159 1.44073 48.4688 1.44073 50.1323" stroke="white" stroke-linecap="round" stroke-linejoin="round"/>
<path d="M2.25978 43.4815C0.144435 43.4815 6.39999 42.6053 8.4656 42.1471M48.7545 44.6148C48.7545 41.4788 47.8286 50.8265 47.6534 53.9571C47.4667 57.3069 49.9815 54.6815 51.6513 54.555" stroke="white" stroke-linecap="round" stroke-linejoin="round"/>
<path d="M44.8608 50.8614C44.8608 50.9704 46.0143 50.7069 46.091 50.6984C47.9984 50.492 49.9354 50.7762 51.8344 50.5301M55.6312 51.3428C55.0217 51.3428 54.7026 52.2381 54.5714 52.6915C53.8593 55.1545 57.0735 55.0735 58.3529 53.9386C59.5608 52.8661 61.0624 50.0889 58.2852 50.0661C57.1159 50.0566 56.2222 50.8688 55.6016 51.809C55.1418 52.5058 54.6931 53.5127 55.7201 53.8545" stroke="white" stroke-linecap="round" stroke-linejoin="round"/>
<path d="M59.9355 51.3259C59.2603 51.3259 59.2799 52.6804 59.3333 53.1079C59.5566 54.9058 61.3942 55.128 62.8153 54.746M65.2206 50.5471C65.2206 52.7672 65.2942 55.3846 66.1243 57.4725C66.446 58.2815 66.8349 58.1391 66.8709 57.3286C66.9392 55.7709 66.4265 54.309 65.9439 52.8492C65.6661 52.0095 64.3556 49.2682 65.864 48.9719C67.1757 48.7148 68.2222 49.7772 68.9947 50.7058C69.8339 51.7137 70.3661 52.9301 68.9026 53.5434C68.0243 53.9111 66.3862 53.6529 65.782 54.3963M79.1873 48.792C79.1873 48.764 79.146 48.5529 79.0947 48.5741C78.9095 48.6508 79.1339 50.6037 79.1434 50.7714C79.1995 51.7968 79.2365 52.8264 79.2487 53.854C79.2534 54.2878 79.5492 53.5423 79.5984 53.4434C80.472 51.692 80.8741 49.7688 82.5085 48.4698C82.8291 48.2153 83.9238 47.5936 84.3349 47.9973C84.7074 48.3635 84.4291 49.5582 84.3714 49.9894C84.2545 50.8624 84.1836 51.7238 84.1836 52.6042C84.1836 53.1614 84.4455 52.6529 84.5868 52.4296C85.4323 51.0883 86.0058 49.192 87.2667 48.2074C89.8032 46.227 87.1566 54.2053 89.5217 53.1492M93.1265 51.1455C94.1312 51.1735 95.0841 50.0788 95.8254 49.5127C96.6614 48.8746 98.2027 47.5868 96.3101 47.0957C94.1952 46.5465 91.9931 48.8 91.8609 50.8032C91.6381 54.1793 96.9191 53.4391 98.8476 52.8682" stroke="white" stroke-linecap="round" stroke-linejoin="round"/>
</svg>
